<svg width="28" height="28" viewBox="0 0 28 28" fill="none" xmlns="http://www.w3.org/2000/svg"><path d="M24.5 1.75H23.5615C23.5615 1.72218 23.5728 1.6975 23.5704 1.6688C23.5606 1.55391 23.5281 1.44212 23.4747 1.33995C23.4212 1.23777 23.348 1.14726 23.2592 1.0737C23.1704 1.00013 23.0679 0.944981 22.9576 0.911468C22.8472 0.877954 22.7314 0.866748 22.6167 0.878501C21.9564 0.943348 21.3449 1.25451 20.9037 1.75H15.6387C15.643 1.72311 15.6459 1.696 15.6474 1.6688C15.6385 1.55364 15.6064 1.44146 15.5532 1.33892C15.5001 1.23637 15.4269 1.14555 15.3379 1.07185C15.249 0.998138 15.1461 0.943043 15.0355 0.909831C14.9249 0.876618 14.8087 0.865964 14.6939 0.878501C14.0336 0.943087 13.422 1.25429 12.9811 1.75H7.86275C7.86708 1.72311 7.87 1.696 7.8715 1.6688C7.86201 1.55383 7.82966 1.4419 7.77633 1.3396C7.723 1.23731 7.64977 1.14669 7.56095 1.07307C7.47212 0.999456 7.36949 0.944324 7.25907 0.910912C7.14865 0.8775 7.03266 0.866481 6.91792 0.878501C6.25773 0.943273 5.64619 1.25445 5.2052 1.75H3.5C2.57207 1.75107 1.68245 2.12016 1.0263 2.7763C0.370156 3.43245 0.00106528 4.32207 0 5.25L0 24.5C0.00106528 25.4279 0.370156 26.3176 1.0263 26.9737C1.68245 27.6298 2.57207 27.9989 3.5 28H24.5C25.4279 27.9989 26.3175 27.6298 26.9737 26.9737C27.6298 26.3176 27.9989 25.4279 28 24.5V5.25C27.9989 4.32207 27.6298 3.43245 26.9737 2.7763C26.3175 2.12016 25.4279 1.75107 24.5 1.75ZM26.25 24.5C26.25 24.9641 26.0656 25.4093 25.7374 25.7374C25.4092 26.0656 24.9641 26.25 24.5 26.25H3.5C3.03587 26.25 2.59075 26.0656 2.26256 25.7374C1.93437 25.4093 1.75 24.9641 1.75 24.5V9.625H19.25C19.4821 9.625 19.7046 9.53281 19.8687 9.36872C20.0328 9.20463 20.125 8.98207 20.125 8.75C20.125 8.51794 20.0328 8.29538 19.8687 8.13128C19.7046 7.96719 19.4821 7.875 19.25 7.875H1.75V5.25C1.75 4.78587 1.93437 4.34075 2.26256 4.01256C2.59075 3.68438 3.03587 3.5 3.5 3.5H4.52392C4.52783 4.16848 4.78494 4.81239 5.24347 5.29884C5.70199 5.78529 6.32784 6.07988 6.99493 6.12325L7.05128 6.125C7.27864 6.12527 7.49718 6.03703 7.66062 5.87897C7.82405 5.72091 7.91954 5.50544 7.92687 5.27819C7.93419 5.05094 7.85278 4.82977 7.69986 4.66151C7.54694 4.49325 7.33454 4.39112 7.10763 4.37675C6.88438 4.36083 6.67513 4.2621 6.5209 4.09991C6.36668 3.93772 6.27859 3.72377 6.27392 3.5H12.2981C12.302 4.16862 12.5593 4.81265 13.018 5.29912C13.4767 5.78559 14.1028 6.08009 14.77 6.12325L14.8265 6.125C15.0539 6.12527 15.2724 6.03703 15.4359 5.87897C15.5993 5.72091 15.6948 5.50544 15.7021 5.27819C15.7094 5.05094 15.628 4.82977 15.4751 4.66151C15.3222 4.49325 15.1098 4.39112 14.8829 4.37675C14.6595 4.36093 14.45 4.26227 14.2955 4.1001C14.1411 3.93792 14.0527 3.72392 14.0478 3.5H20.2225C20.225 4.16909 20.4816 4.81224 20.9404 5.29927C21.3992 5.7863 22.0259 6.08083 22.6937 6.12325L22.75 6.125C22.9774 6.12527 23.1959 6.03703 23.3593 5.87897C23.5228 5.72091 23.6183 5.50544 23.6256 5.27819C23.6329 5.05094 23.5515 4.82977 23.3986 4.66151C23.2457 4.49325 23.0333 4.39112 22.8063 4.37675C22.5831 4.36095 22.3737 4.26225 22.2195 4.10004C22.0652 3.93782 21.9772 3.7238 21.9727 3.5H24.5C24.9641 3.5 25.4092 3.68438 25.7374 4.01256C26.0656 4.34075 26.25 4.78587 26.25 5.25V7.875H22.75C22.5179 7.875 22.2954 7.96719 22.1313 8.13128C21.9672 8.29538 21.875 8.51794 21.875 8.75C21.875 8.98207 21.9672 9.20463 22.1313 9.36872C22.2954 9.53281 22.5179 9.625 22.75 9.625H26.25V24.5Z" fill="white"></path></svg>