<svg xmlns="http://www.w3.org/2000/svg" width="17" height="24" viewBox="0 0 17 24" fill="none">
<path d="M8.0307 22.8863L8.03086 22.8865L8.41769 23.4445L8.50011 23.5634L8.58221 23.4443L8.96681 22.8863L8.96683 22.8863C9.11268 22.6745 10.8934 20.0854 12.6379 17.0501C13.5102 15.5327 14.3744 13.9018 15.0209 12.3998C15.6659 10.9013 16.1 9.51797 16.1 8.50012C16.1 4.30925 12.691 0.9 8.50012 0.9C4.30925 0.9 0.9 4.30899 0.9 8.50012C0.9 9.51796 1.33399 10.9013 1.97868 12.3998C2.62495 13.9019 3.4889 15.5327 4.36081 17.0502C6.10476 20.0855 7.88483 22.6746 8.0307 22.8863ZM8.50012 2.03789C12.0625 2.03789 14.9624 4.93771 14.9624 8.50012C14.9624 9.274 14.6503 10.3459 14.1499 11.5625C13.6509 12.7757 12.9695 14.1209 12.2415 15.4372C10.8384 17.9737 9.26562 20.3957 8.50013 21.5453C7.73464 20.3955 6.16184 17.9735 4.75878 15.4371C4.03072 14.1209 3.34938 12.7756 2.85032 11.5624C2.3499 10.3459 2.03789 9.274 2.03789 8.50012C2.03789 4.93769 4.9355 2.03789 8.50012 2.03789Z" fill="black" stroke="black" stroke-width="0.2"/>
<path d="M8.0307 22.8863L8.03086 22.8865L8.41769 23.4445L8.50011 23.5634L8.58221 23.4443L8.96681 22.8863L8.96683 22.8863C9.0021 22.8351 9.13275 22.6451 9.33524 22.3437L9.36297 22.3024C10.1182 21.1766 11.8002 18.6073 13.2936 15.8831C14.0403 14.5211 14.7409 13.1186 15.255 11.8373C15.7681 10.5588 16.1 9.39035 16.1 8.50012C16.1 4.30925 12.691 0.9 8.50012 0.9C4.30925 0.9 0.9 4.30899 0.9 8.50012C0.9 9.39049 1.23192 10.5592 1.74491 11.838C2.25903 13.1195 2.95954 14.5223 3.70611 15.8845C5.19935 18.6092 6.88085 21.1786 7.6354 22.3036L7.66263 22.3442C7.8649 22.6453 7.99543 22.8351 8.0307 22.8863ZM14.9624 8.50012C14.9624 9.17163 14.7273 10.0689 14.3366 11.0922C13.9468 12.1132 13.406 13.2501 12.8027 14.3976C11.5961 16.6924 10.1434 19.0228 9.15982 20.5406C8.94911 20.8658 8.76 21.1536 8.59952 21.3957C8.56504 21.4477 8.53189 21.4976 8.50013 21.5453C8.46796 21.497 8.43437 21.4464 8.39942 21.3937C8.23923 21.152 8.05059 20.8649 7.84047 20.5406C6.85693 19.0227 5.40413 16.6924 4.19758 14.3975C3.59426 13.25 3.05343 12.1131 2.66367 11.0922C2.27296 10.0689 2.03789 9.17163 2.03789 8.50012C2.03789 4.93769 4.9355 2.03789 8.50012 2.03789C12.0625 2.03789 14.9624 4.93771 14.9624 8.50012Z" fill="black" stroke="black" stroke-width="0.2"/>
<path d="M11.839 9.29156V9.29157C11.8393 11.1146 10.3559 12.5978 8.53281 12.5978C6.70978 12.5978 5.2266 11.1146 5.2266 9.29156C5.2266 7.47106 6.70973 5.98783 8.53281 5.98783C10.3559 5.98783 11.839 7.47106 11.839 9.29156ZM8.53281 4.79404C6.05029 4.79404 4.03281 6.81145 4.03281 9.29156C4.03281 11.7741 6.05025 13.7916 8.53281 13.7916C11.0128 13.7916 13.0328 11.7742 13.0328 9.29156C13.0328 6.81141 11.0128 4.79404 8.53281 4.79404Z" fill="black" stroke="black" stroke-width="0.2"/>
<path d="M11.839 9.29156V9.29157C11.8393 11.1146 10.3559 12.5978 8.53281 12.5978C6.70978 12.5978 5.2266 11.1146 5.2266 9.29156C5.2266 7.47106 6.70973 5.98783 8.53281 5.98783C10.3559 5.98783 11.839 7.47106 11.839 9.29156ZM13.0328 9.29143C13.0327 6.81134 11.0128 4.79404 8.53281 4.79404C6.05029 4.79404 4.03281 6.81145 4.03281 9.29156C4.03281 11.7741 6.05025 13.7916 8.53281 13.7916C11.0128 13.7916 13.0328 11.7742 13.0328 9.29156V9.29155V9.29154V9.29154V9.29153V9.29152V9.29152V9.29151V9.2915V9.29149V9.29149V9.29148V9.29147V9.29147V9.29146V9.29145V9.29144V9.29144V9.29143Z" fill="black" stroke="black" stroke-width="0.2"/>
</svg>