<svg width="21" height="14" viewBox="0 0 21 14" fill="none" xmlns="http://www.w3.org/2000/svg">
    <path d="M0.0727356 6.75525L1.37937 11.3156V7.62639L1.04634 6.47354C0.943817 6.14051 1.0976 5.78185 1.37937 5.60244V4.629V4.50085L1.30248 4.52648C0.354681 4.80842 -0.209036 5.80748 0.0727141 6.75549L0.0727356 6.75525ZM11.5756 2.34867L16.136 1.04204C16.2129 1.01641 16.2898 1.01641 16.3409 1.01641C16.4691 1.01641 16.597 1.04204 16.6996 1.11893C16.879 1.22145 17.007 1.37506 17.0582 1.5801L17.2887 2.37429H18.3647L18.0573 1.29831C17.9292 0.837138 17.6218 0.452839 17.2118 0.22232C16.8019 -0.00818524 16.3151 -0.0594465 15.8541 0.0685358L7.86092 2.37424H11.5756L11.5756 2.34867ZM20.696 4.65425V11.3921C20.696 12.3911 19.9018 13.1854 18.9027 13.1854L3.68499 13.1856C3.42885 13.1856 3.17255 13.1343 2.94203 13.0318C2.66026 12.9036 2.40395 12.6987 2.2247 12.4426C2.01983 12.1352 1.89168 11.7765 1.89168 11.3922C1.89168 11.3922 1.89168 4.47495 1.91731 4.37284C2.04546 3.52737 2.78841 2.86132 3.68498 2.86132H18.877C19.8761 2.86115 20.6959 3.65534 20.6959 4.65446L20.696 4.65425ZM19.6713 4.65425C19.6713 4.21872 19.3383 3.88565 18.9027 3.88565H3.68499C3.27507 3.88565 2.94203 4.19304 2.91639 4.60297V11.3921C2.91639 11.8276 3.24942 12.1607 3.68499 12.1607H18.877C19.3126 12.1607 19.6456 11.8276 19.6456 11.3921V4.65425H19.6713ZM13.9324 6.52442C13.6507 6.52442 13.42 6.75493 13.42 7.03687V7.24174C13.42 7.5235 13.6505 7.75418 13.9324 7.75418C14.2142 7.75418 14.4449 7.52367 14.4449 7.24174V7.03687C14.4449 6.7551 14.2144 6.52442 13.9324 6.52442ZM13.9324 4.67988C13.6507 4.67988 13.42 4.91039 13.42 5.19233V5.3972C13.42 5.67897 13.6505 5.90964 13.9324 5.90964C14.2142 5.90964 14.4449 5.67913 14.4449 5.3972V5.19233C14.4449 4.91056 14.2144 4.67988 13.9324 4.67988ZM13.9324 8.36896C13.6507 8.36896 13.42 8.59947 13.42 8.8814V9.08628C13.42 9.36804 13.6505 9.59872 13.9324 9.59872C14.2142 9.59872 14.4449 9.36821 14.4449 9.08628V8.8814C14.4449 8.59964 14.2144 8.36896 13.9324 8.36896ZM13.9324 10.2137C13.6507 10.2137 13.42 10.4442 13.42 10.7261V10.9312C13.42 11.0849 13.4969 11.2129 13.5994 11.3155C13.6763 11.3923 13.7788 11.4436 13.9324 11.4436C14.1629 11.4436 14.368 11.2898 14.4192 11.0593C14.4192 11.0081 14.4449 10.9824 14.4449 10.9312V10.7263C14.4449 10.6494 14.4192 10.5981 14.3936 10.5214C14.3167 10.3417 14.1375 10.2137 13.9324 10.2137L13.9324 10.2137Z" fill="black"></path>
</svg>