<svg xmlns="http://www.w3.org/2000/svg" width="14.028" height="14.085" viewBox="0 0 14.028 14.085">
    <g id="Layer_4" transform="translate(-0.139 -0.042)">
        <g id="Group_5210" data-name="Group 5210" transform="translate(0.139 0.042)">
            <path id="Path_16211" data-name="Path 16211" d="M12.289,3.925a1.466,1.466,0,0,1-2.1-2.049l-.619-.606v0L8.315.042.139,8.408,1.393,9.633l.634.619A1.452,1.452,0,1,1,4.1,12.282l.634.62,1.254,1.225L14.167,5.76ZM10.056,8.293,5.972,12.474l-.65-.635A2.32,2.32,0,0,0,2.441,9.024l-.65-.636,4.085-4.18.836.817L7.324,4.4l-.836-.817L8.326,1.7l.656.642A2.319,2.319,0,0,0,11.855,5.15l.651.635L10.668,7.666l-.8-.783-.613.628Z" transform="translate(-0.139 -0.042)" fill="#ff9494"></path>
            <rect id="Rectangle_1781" data-name="Rectangle 1781" width="1.766" height="0.877" transform="translate(8.457 6.827) rotate(-135.669)" fill="#ff9494"></rect>
        </g>
    </g>
</svg>